name rise31.4854peak64.571fall78.6902.mot
datacolumns 19
datarows 30
range 4.03331700000000 4.08165600000000
endheader
time	ground_force1_vx	ground_force1_vy	ground_force1_vz	ground_force1_px	ground_force1_py	ground_force1_pz	ground_force2_vx	ground_force2_vy	ground_force2_vz	ground_force2_px	ground_force2_py	ground_force2_pz	ground_torque1_x	ground_torque1_y	ground_torque1_z	ground_torque2_x	ground_torque2_y	ground_torque2_z	
4.03331700000000	71.06225900000000	795.63108599999998	45.05265400000000	0.31245500000000	0.00000000000000	0.08789800000000	0.00000000000000	0.00000000000000	0.00000000000000	0.00000000000000	0.00000000000000	0.00000000000000	0.00000000000000	14.30189600000000	0.00000000000000	0.00000000000000	0.00000000000000	0.00000000000000	
4.03498900000000	70.41040400000000	797.37084800000002	45.09010500000000	0.31162200000000	0.00000000000000	0.08788300000000	0.00000000000000	0.00000000000000	0.00000000000000	0.00000000000000	0.00000000000000	0.00000000000000	0.00000000000000	14.31042700000000	0.00000000000000	0.00000000000000	0.00000000000000	0.00000000000000	
4.03665700000000	69.75376400000000	798.93590900000004	45.12777400000000	0.31080100000000	0.00000000000000	0.08786900000000	0.00000000000000	0.00000000000000	0.00000000000000	0.00000000000000	0.00000000000000	0.00000000000000	0.00000000000000	14.32141900000000	0.00000000000000	0.00000000000000	0.00000000000000	0.00000000000000	
4.03832200000000	69.09244400000000	800.32551400000000	45.16551200000000	0.30999300000000	0.00000000000000	0.08785700000000	0.00000000000000	0.00000000000000	0.00000000000000	0.00000000000000	0.00000000000000	0.00000000000000	0.00000000000000	14.33478400000000	0.00000000000000	0.00000000000000	0.00000000000000	0.00000000000000	
4.03998800000000	68.42649800000000	801.53917700000000	45.20310600000000	0.30919400000000	0.00000000000000	0.08784700000000	0.00000000000000	0.00000000000000	0.00000000000000	0.00000000000000	0.00000000000000	0.00000000000000	0.00000000000000	14.35039700000000	0.00000000000000	0.00000000000000	0.00000000000000	0.00000000000000	
4.04165300000000	67.75593600000001	802.57669299999998	45.24029100000000	0.30840200000000	0.00000000000000	0.08783900000000	0.00000000000000	0.00000000000000	0.00000000000000	0.00000000000000	0.00000000000000	0.00000000000000	0.00000000000000	14.36810100000000	0.00000000000000	0.00000000000000	0.00000000000000	0.00000000000000	
4.04331900000000	67.08072799999999	803.43814899999995	45.27675000000000	0.30761600000000	0.00000000000000	0.08783300000000	0.00000000000000	0.00000000000000	0.00000000000000	0.00000000000000	0.00000000000000	0.00000000000000	0.00000000000000	14.38770500000000	0.00000000000000	0.00000000000000	0.00000000000000	0.00000000000000	
4.04498900000000	66.40080800000000	804.12392899999998	45.31212000000000	0.30683400000000	0.00000000000000	0.08783000000000	0.00000000000000	0.00000000000000	0.00000000000000	0.00000000000000	0.00000000000000	0.00000000000000	0.00000000000000	14.40899400000000	0.00000000000000	0.00000000000000	0.00000000000000	0.00000000000000	
4.04665100000000	65.71608000000001	804.63472300000001	45.34600200000000	0.30605200000000	0.00000000000000	0.08782900000000	0.00000000000000	0.00000000000000	0.00000000000000	0.00000000000000	0.00000000000000	0.00000000000000	0.00000000000000	14.43172500000000	0.00000000000000	0.00000000000000	0.00000000000000	0.00000000000000	
4.04831900000000	65.02642500000000	804.97153000000003	45.37796100000000	0.30527000000000	0.00000000000000	0.08783100000000	0.00000000000000	0.00000000000000	0.00000000000000	0.00000000000000	0.00000000000000	0.00000000000000	0.00000000000000	14.45563500000000	0.00000000000000	0.00000000000000	0.00000000000000	0.00000000000000	
4.04998300000000	64.33170400000000	805.13566600000001	45.40753300000000	0.30448400000000	0.00000000000000	0.08783500000000	0.00000000000000	0.00000000000000	0.00000000000000	0.00000000000000	0.00000000000000	0.00000000000000	0.00000000000000	14.48044200000000	0.00000000000000	0.00000000000000	0.00000000000000	0.00000000000000	
4.05165500000000	63.63176300000000	805.12876100000005	45.43423300000000	0.30369300000000	0.00000000000000	0.08784100000000	0.00000000000000	0.00000000000000	0.00000000000000	0.00000000000000	0.00000000000000	0.00000000000000	0.00000000000000	14.50585000000000	0.00000000000000	0.00000000000000	0.00000000000000	0.00000000000000	
4.05332000000000	62.92644100000000	804.95276500000000	45.45756200000000	0.30289400000000	0.00000000000000	0.08785000000000	0.00000000000000	0.00000000000000	0.00000000000000	0.00000000000000	0.00000000000000	0.00000000000000	0.00000000000000	14.53155000000000	0.00000000000000	0.00000000000000	0.00000000000000	0.00000000000000	
4.05499000000000	62.21557200000000	804.60994400000004	45.47700500000000	0.30208600000000	0.00000000000000	0.08786200000000	0.00000000000000	0.00000000000000	0.00000000000000	0.00000000000000	0.00000000000000	0.00000000000000	0.00000000000000	14.55722600000000	0.00000000000000	0.00000000000000	0.00000000000000	0.00000000000000	
4.05665200000000	61.49899200000000	804.10288300000002	45.49204800000000	0.30126600000000	0.00000000000000	0.08787600000000	0.00000000000000	0.00000000000000	0.00000000000000	0.00000000000000	0.00000000000000	0.00000000000000	0.00000000000000	14.58255500000000	0.00000000000000	0.00000000000000	0.00000000000000	0.00000000000000	
4.05832300000000	60.77654300000000	803.43447700000002	45.50217100000000	0.30043200000000	0.00000000000000	0.08789300000000	0.00000000000000	0.00000000000000	0.00000000000000	0.00000000000000	0.00000000000000	0.00000000000000	0.00000000000000	14.60721300000000	0.00000000000000	0.00000000000000	0.00000000000000	0.00000000000000	
4.05998200000000	60.04807700000000	802.60793200000001	45.50686600000000	0.29958300000000	0.00000000000000	0.08791300000000	0.00000000000000	0.00000000000000	0.00000000000000	0.00000000000000	0.00000000000000	0.00000000000000	0.00000000000000	14.63087600000000	0.00000000000000	0.00000000000000	0.00000000000000	0.00000000000000	
4.06165000000000	59.31346100000000	801.62675500000000	45.50563200000000	0.29871500000000	0.00000000000000	0.08793500000000	0.00000000000000	0.00000000000000	0.00000000000000	0.00000000000000	0.00000000000000	0.00000000000000	0.00000000000000	14.65322500000000	0.00000000000000	0.00000000000000	0.00000000000000	0.00000000000000	
4.06331700000000	58.57258300000000	800.49475099999995	45.49798400000000	0.29782800000000	0.00000000000000	0.08796000000000	0.00000000000000	0.00000000000000	0.00000000000000	0.00000000000000	0.00000000000000	0.00000000000000	0.00000000000000	14.67394700000000	0.00000000000000	0.00000000000000	0.00000000000000	0.00000000000000	
4.06498900000000	57.82535400000000	799.21601199999998	45.48346000000000	0.29692000000000	0.00000000000000	0.08798800000000	0.00000000000000	0.00000000000000	0.00000000000000	0.00000000000000	0.00000000000000	0.00000000000000	0.00000000000000	14.69274000000000	0.00000000000000	0.00000000000000	0.00000000000000	0.00000000000000	
4.06665500000000	57.07170900000000	797.79490699999997	45.46162000000000	0.29598900000000	0.00000000000000	0.08801900000000	0.00000000000000	0.00000000000000	0.00000000000000	0.00000000000000	0.00000000000000	0.00000000000000	0.00000000000000	14.70931100000000	0.00000000000000	0.00000000000000	0.00000000000000	0.00000000000000	
4.06831700000000	56.31161500000000	796.23607500000003	45.43205400000000	0.29503300000000	0.00000000000000	0.08805300000000	0.00000000000000	0.00000000000000	0.00000000000000	0.00000000000000	0.00000000000000	0.00000000000000	0.00000000000000	14.72338600000000	0.00000000000000	0.00000000000000	0.00000000000000	0.00000000000000	
4.06998600000000	55.54507400000000	794.54440999999997	45.39438500000000	0.29405100000000	0.00000000000000	0.08808900000000	0.00000000000000	0.00000000000000	0.00000000000000	0.00000000000000	0.00000000000000	0.00000000000000	0.00000000000000	14.73470500000000	0.00000000000000	0.00000000000000	0.00000000000000	0.00000000000000	
4.07165300000000	54.77212000000000	792.72505000000001	45.34827100000000	0.29304200000000	0.00000000000000	0.08812900000000	0.00000000000000	0.00000000000000	0.00000000000000	0.00000000000000	0.00000000000000	0.00000000000000	0.00000000000000	14.74302700000000	0.00000000000000	0.00000000000000	0.00000000000000	0.00000000000000	
4.07331900000000	53.99282600000000	790.78336600000000	45.29340900000000	0.29200500000000	0.00000000000000	0.08817100000000	0.00000000000000	0.00000000000000	0.00000000000000	0.00000000000000	0.00000000000000	0.00000000000000	0.00000000000000	14.74813300000000	0.00000000000000	0.00000000000000	0.00000000000000	0.00000000000000	
4.07498900000000	53.20730500000000	788.72494099999994	45.22953800000000	0.29093900000000	0.00000000000000	0.08821500000000	0.00000000000000	0.00000000000000	0.00000000000000	0.00000000000000	0.00000000000000	0.00000000000000	0.00000000000000	14.74982700000000	0.00000000000000	0.00000000000000	0.00000000000000	0.00000000000000	
4.07665400000000	52.41571300000000	786.55556200000001	45.15644000000000	0.28984200000000	0.00000000000000	0.08826300000000	0.00000000000000	0.00000000000000	0.00000000000000	0.00000000000000	0.00000000000000	0.00000000000000	0.00000000000000	14.74793600000000	0.00000000000000	0.00000000000000	0.00000000000000	0.00000000000000	
4.07831600000000	51.61824400000000	784.28120200000001	45.07394200000000	0.28871500000000	0.00000000000000	0.08831300000000	0.00000000000000	0.00000000000000	0.00000000000000	0.00000000000000	0.00000000000000	0.00000000000000	0.00000000000000	14.74231100000000	0.00000000000000	0.00000000000000	0.00000000000000	0.00000000000000	
4.07998400000000	50.81513900000000	781.90800200000001	44.98191800000000	0.28755600000000	0.00000000000000	0.08836600000000	0.00000000000000	0.00000000000000	0.00000000000000	0.00000000000000	0.00000000000000	0.00000000000000	0.00000000000000	14.73283200000000	0.00000000000000	0.00000000000000	0.00000000000000	0.00000000000000	
4.08165600000000	50.00668100000000	779.44225500000005	44.88029000000000	0.28636600000000	0.00000000000000	0.08842100000000	0.00000000000000	0.00000000000000	0.00000000000000	0.00000000000000	0.00000000000000	0.00000000000000	0.00000000000000	14.71940400000000	0.00000000000000	0.00000000000000	0.00000000000000	0.00000000000000	
